<svg aria-label="Double Speed" width="1em" height="1em" viewBox="0 0 12 6" fill="inherit" xmlns="http://www.w3.org/2000/svg">
<path d="M0.189387 6.00027V5.1139L2.26041 3.19629C2.43655 3.02583 2.58427 2.87243 2.70359 2.73606C2.8248 2.5997 2.91666 2.46618 2.97916 2.33549C3.04166 2.20292 3.07291 2.05993 3.07291 1.90652C3.07291 1.73606 3.03408 1.58928 2.95643 1.46618C2.87878 1.34118 2.77272 1.24553 2.63825 1.17924C2.50378 1.11106 2.35132 1.07697 2.18086 1.07697C2.00283 1.07697 1.84753 1.11296 1.71495 1.18493C1.58238 1.2569 1.48011 1.36011 1.40814 1.49458C1.33617 1.62905 1.30018 1.78909 1.30018 1.9747H0.132568C0.132568 1.59402 0.218743 1.26352 0.391091 0.983221C0.56344 0.702918 0.804917 0.486062 1.11552 0.332653C1.42613 0.179244 1.78408 0.102539 2.18939 0.102539C2.60605 0.102539 2.96874 0.176403 3.27745 0.32413C3.58806 0.469963 3.82954 0.672615 4.00189 0.932085C4.17424 1.19155 4.26041 1.4889 4.26041 1.82413C4.26041 2.04383 4.21685 2.26068 4.12973 2.4747C4.0445 2.68871 3.89204 2.9264 3.67234 3.18777C3.45264 3.44724 3.14299 3.75879 2.74336 4.12243L1.89393 4.95481V4.99458H4.33711V6.00027H0.189387Z" fill="inherit"/>
<path d="M8.18274 1.63663L8.98388 3.1622L9.8049 1.63663H11.0464L9.78217 3.81845L11.0805 6.00027H9.84467L8.98388 4.49174L8.13729 6.00027H6.88729L8.18274 3.81845L6.93274 1.63663H8.18274Z" fill="inherit"/>
</svg>
