<svg aria-label="Half Speed" width="1em" height="1em" viewBox="0 0 13 8" fill="inherit" xmlns="http://www.w3.org/2000/svg">
<path d="M3.42765 1.18191V7.00009H2.19753V2.34952H2.16344L0.831055 3.18475V2.09384L2.2714 1.18191H3.42765Z" fill="inherit"/>
<path d="M7.39591 0.90918L5.52091 7.87509H4.4783L6.3533 0.90918H7.39591Z" fill="inherit"/>
<path d="M8.00765 7.00009V6.11373L10.0787 4.19611C10.2548 4.02566 10.4025 3.87225 10.5219 3.73588C10.6431 3.59952 10.7349 3.466 10.7974 3.33532C10.8599 3.20274 10.8912 3.05975 10.8912 2.90634C10.8912 2.73588 10.8523 2.5891 10.7747 2.466C10.697 2.341 10.591 2.24535 10.4565 2.17907C10.322 2.11088 10.1696 2.07679 9.99912 2.07679C9.82109 2.07679 9.66579 2.11278 9.53321 2.18475C9.40064 2.25672 9.29837 2.35994 9.2264 2.49441C9.15443 2.62888 9.11844 2.78891 9.11844 2.97452H7.95083C7.95083 2.59384 8.037 2.26335 8.20935 1.98304C8.3817 1.70274 8.62318 1.48588 8.93378 1.33248C9.24439 1.17907 9.60234 1.10236 10.0076 1.10236C10.4243 1.10236 10.787 1.17623 11.0957 1.32395C11.4063 1.46979 11.6478 1.67244 11.8201 1.93191C11.9925 2.19138 12.0787 2.48873 12.0787 2.82395C12.0787 3.04365 12.0351 3.26051 11.948 3.47452C11.8628 3.68854 11.7103 3.92623 11.4906 4.18759C11.2709 4.44706 10.9612 4.75861 10.5616 5.12225L9.71219 5.95463V5.99441H12.1554V7.00009H8.00765Z" fill="inherit"/>
</svg>
