<svg aria-label="Next" width="1em" height="1em" viewBox="0 0 11 8" fill="inherit" xmlns="http://www.w3.org/2000/svg">
<path fill-rule="evenodd" clip-rule="evenodd" d="M1.13385 0.71967C1.42675 0.426777 1.90162 0.426777 2.19451 0.71967L4.48741 3.01256C5.17083 3.69598 5.17082 4.80402 4.48741 5.48744L2.19451 7.78033C1.90162 8.07322 1.42675 8.07322 1.13385 7.78033C0.840961 7.48744 0.840961 7.01256 1.13385 6.71967L3.42675 4.42678C3.52438 4.32915 3.52438 4.17085 3.42675 4.07322L1.13385 1.78033C0.840961 1.48744 0.840961 1.01256 1.13385 0.71967Z" fill="inherit"/>
<path fill-rule="evenodd" clip-rule="evenodd" d="M7.13385 0.71967C7.42675 0.426777 7.90162 0.426777 8.19451 0.71967L10.4874 3.01256C11.1708 3.69598 11.1708 4.80402 10.4874 5.48744L8.19451 7.78033C7.90162 8.07322 7.42675 8.07322 7.13385 7.78033C6.84096 7.48744 6.84096 7.01256 7.13385 6.71967L9.42675 4.42678C9.52438 4.32915 9.52438 4.17085 9.42675 4.07322L7.13385 1.78033C6.84096 1.48744 6.84096 1.01256 7.13385 0.71967Z" fill="inherit"/>
</svg>
