<svg aria-label="Previous" width="1em" height="1em" viewBox="0 0 11 8" fill="inherit" xmlns="http://www.w3.org/2000/svg">
<path fill-rule="evenodd" clip-rule="evenodd" d="M9.86615 7.28033C9.57325 7.57322 9.09838 7.57322 8.80549 7.28033L6.51259 4.98744C5.82917 4.30402 5.82918 3.19598 6.51259 2.51256L8.80548 0.21967C9.09838 -0.073223 9.57325 -0.0732231 9.86614 0.21967C10.159 0.512563 10.159 0.987437 9.86614 1.28033L7.57325 3.57322C7.47562 3.67085 7.47562 3.82915 7.57325 3.92678L9.86615 6.21967C10.159 6.51256 10.159 6.98744 9.86615 7.28033Z" fill="inherit" />
<path fill-rule="evenodd" clip-rule="evenodd" d="M3.86615 7.28033C3.57325 7.57322 3.09838 7.57322 2.80549 7.28033L0.512592 4.98744C-0.170826 4.30402 -0.170825 3.19598 0.512592 2.51256L2.80548 0.21967C3.09838 -0.073223 3.57325 -0.0732231 3.86614 0.21967C4.15904 0.512563 4.15904 0.987437 3.86614 1.28033L1.57325 3.57322C1.47562 3.67085 1.47562 3.82915 1.57325 3.92678L3.86615 6.21967C4.15904 6.51256 4.15904 6.98744 3.86615 7.28033Z" fill="inherit" />
</svg>